<mxfile host="app.diagrams.net" modified="2021-08-06T10:20:09.629Z" agent="5.0 (Macintosh; Intel Mac OS X 10_15_7) AppleWebKit/537.36 (KHTML, like Gecko) Chrome/92.0.4515.107 Safari/537.36 Edg/92.0.902.62" etag="gm42EWtZ1y2UMSGjSzxg" version="14.9.3" type="github">
  <diagram id="xWvH_2XtD0ztX-XZVG8I" name="第 1 页">
    <mxGraphModel dx="919" dy="453" grid="0" gridSize="10" guides="1" tooltips="1" connect="1" arrows="1" fold="1" page="1" pageScale="1" pageWidth="827" pageHeight="1169" math="0" shadow="0">
      <root>
        <mxCell id="0" />
        <mxCell id="1" parent="0" />
        <mxCell id="SGy9ina3q4Tt7oIruu-C-11" value="" style="ellipse;whiteSpace=wrap;html=1;fillColor=none;dashed=1;" vertex="1" parent="1">
          <mxGeometry x="94" y="218" width="631" height="99" as="geometry" />
        </mxCell>
        <mxCell id="SGy9ina3q4Tt7oIruu-C-19" value="" style="ellipse;whiteSpace=wrap;html=1;fillColor=none;dashed=1;" vertex="1" parent="1">
          <mxGeometry x="98" y="382" width="631" height="99" as="geometry" />
        </mxCell>
        <mxCell id="SGy9ina3q4Tt7oIruu-C-1" value="a(5)&lt;br&gt;" style="ellipse;whiteSpace=wrap;html=1;aspect=fixed;fillColor=#dae8fc;strokeColor=#6c8ebf;" vertex="1" parent="1">
          <mxGeometry x="174" y="249" width="36" height="36" as="geometry" />
        </mxCell>
        <mxCell id="SGy9ina3q4Tt7oIruu-C-6" value="b(32)" style="ellipse;whiteSpace=wrap;html=1;aspect=fixed;" vertex="1" parent="1">
          <mxGeometry x="264" y="249" width="36" height="36" as="geometry" />
        </mxCell>
        <mxCell id="SGy9ina3q4Tt7oIruu-C-7" value="c(18)" style="ellipse;whiteSpace=wrap;html=1;aspect=fixed;" vertex="1" parent="1">
          <mxGeometry x="353" y="249" width="36" height="36" as="geometry" />
        </mxCell>
        <mxCell id="SGy9ina3q4Tt7oIruu-C-8" value="d(7)" style="ellipse;whiteSpace=wrap;html=1;aspect=fixed;fillColor=#dae8fc;strokeColor=#6c8ebf;" vertex="1" parent="1">
          <mxGeometry x="443" y="249" width="36" height="36" as="geometry" />
        </mxCell>
        <mxCell id="SGy9ina3q4Tt7oIruu-C-9" value="e(25)" style="ellipse;whiteSpace=wrap;html=1;aspect=fixed;" vertex="1" parent="1">
          <mxGeometry x="532" y="249" width="36" height="36" as="geometry" />
        </mxCell>
        <mxCell id="SGy9ina3q4Tt7oIruu-C-10" value="f(13)" style="ellipse;whiteSpace=wrap;html=1;aspect=fixed;" vertex="1" parent="1">
          <mxGeometry x="622" y="249" width="36" height="36" as="geometry" />
        </mxCell>
        <mxCell id="SGy9ina3q4Tt7oIruu-C-12" value="&lt;font face=&quot;Comic Sans MS&quot;&gt;T&lt;/font&gt;" style="text;html=1;strokeColor=none;fillColor=none;align=center;verticalAlign=middle;whiteSpace=wrap;rounded=0;dashed=1;" vertex="1" parent="1">
          <mxGeometry x="40" y="257" width="40" height="20" as="geometry" />
        </mxCell>
        <mxCell id="SGy9ina3q4Tt7oIruu-C-13" value="a(5)&lt;br&gt;" style="ellipse;whiteSpace=wrap;html=1;aspect=fixed;" vertex="1" parent="1">
          <mxGeometry x="174" y="478" width="36" height="36" as="geometry" />
        </mxCell>
        <mxCell id="SGy9ina3q4Tt7oIruu-C-14" value="b(32)" style="ellipse;whiteSpace=wrap;html=1;aspect=fixed;" vertex="1" parent="1">
          <mxGeometry x="353" y="413.5" width="36" height="36" as="geometry" />
        </mxCell>
        <mxCell id="SGy9ina3q4Tt7oIruu-C-15" value="c(18)" style="ellipse;whiteSpace=wrap;html=1;aspect=fixed;" vertex="1" parent="1">
          <mxGeometry x="443" y="416" width="36" height="36" as="geometry" />
        </mxCell>
        <mxCell id="SGy9ina3q4Tt7oIruu-C-16" value="d(7)" style="ellipse;whiteSpace=wrap;html=1;aspect=fixed;" vertex="1" parent="1">
          <mxGeometry x="264" y="481" width="36" height="36" as="geometry" />
        </mxCell>
        <mxCell id="SGy9ina3q4Tt7oIruu-C-17" value="e(25)" style="ellipse;whiteSpace=wrap;html=1;aspect=fixed;" vertex="1" parent="1">
          <mxGeometry x="529.5" y="413.5" width="36" height="36" as="geometry" />
        </mxCell>
        <mxCell id="SGy9ina3q4Tt7oIruu-C-18" value="f(13)" style="ellipse;whiteSpace=wrap;html=1;aspect=fixed;fillColor=#dae8fc;strokeColor=#6c8ebf;" vertex="1" parent="1">
          <mxGeometry x="619.5" y="413.5" width="36" height="36" as="geometry" />
        </mxCell>
        <mxCell id="SGy9ina3q4Tt7oIruu-C-20" value="&lt;font face=&quot;Comic Sans MS&quot;&gt;T&lt;/font&gt;" style="text;html=1;strokeColor=none;fillColor=none;align=center;verticalAlign=middle;whiteSpace=wrap;rounded=0;dashed=1;" vertex="1" parent="1">
          <mxGeometry x="40" y="411" width="40" height="20" as="geometry" />
        </mxCell>
        <mxCell id="SGy9ina3q4Tt7oIruu-C-22" style="rounded=0;orthogonalLoop=1;jettySize=auto;html=1;exitX=0;exitY=1;exitDx=0;exitDy=0;entryX=1;entryY=0;entryDx=0;entryDy=0;startArrow=none;startFill=0;endArrow=none;endFill=0;" edge="1" parent="1" source="SGy9ina3q4Tt7oIruu-C-21" target="SGy9ina3q4Tt7oIruu-C-13">
          <mxGeometry relative="1" as="geometry" />
        </mxCell>
        <mxCell id="SGy9ina3q4Tt7oIruu-C-23" style="edgeStyle=none;rounded=0;orthogonalLoop=1;jettySize=auto;html=1;exitX=1;exitY=1;exitDx=0;exitDy=0;startArrow=none;startFill=0;endArrow=none;endFill=0;" edge="1" parent="1" source="SGy9ina3q4Tt7oIruu-C-21" target="SGy9ina3q4Tt7oIruu-C-16">
          <mxGeometry relative="1" as="geometry" />
        </mxCell>
        <mxCell id="SGy9ina3q4Tt7oIruu-C-21" value="t1(12)" style="ellipse;whiteSpace=wrap;html=1;aspect=fixed;fillColor=#dae8fc;strokeColor=#6c8ebf;" vertex="1" parent="1">
          <mxGeometry x="225" y="416" width="36" height="36" as="geometry" />
        </mxCell>
        <mxCell id="SGy9ina3q4Tt7oIruu-C-24" value="" style="ellipse;whiteSpace=wrap;html=1;fillColor=none;dashed=1;" vertex="1" parent="1">
          <mxGeometry x="96" y="561" width="631" height="99" as="geometry" />
        </mxCell>
        <mxCell id="SGy9ina3q4Tt7oIruu-C-25" value="a(5)&lt;br&gt;" style="ellipse;whiteSpace=wrap;html=1;aspect=fixed;" vertex="1" parent="1">
          <mxGeometry x="112" y="738" width="36" height="36" as="geometry" />
        </mxCell>
        <mxCell id="SGy9ina3q4Tt7oIruu-C-26" value="b(32)" style="ellipse;whiteSpace=wrap;html=1;aspect=fixed;" vertex="1" parent="1">
          <mxGeometry x="351" y="592.5" width="36" height="36" as="geometry" />
        </mxCell>
        <mxCell id="SGy9ina3q4Tt7oIruu-C-27" value="c(18)" style="ellipse;whiteSpace=wrap;html=1;aspect=fixed;fillColor=#dae8fc;strokeColor=#6c8ebf;" vertex="1" parent="1">
          <mxGeometry x="443" y="592.5" width="36" height="36" as="geometry" />
        </mxCell>
        <mxCell id="SGy9ina3q4Tt7oIruu-C-28" value="d(7)" style="ellipse;whiteSpace=wrap;html=1;aspect=fixed;" vertex="1" parent="1">
          <mxGeometry x="204" y="738" width="36" height="36" as="geometry" />
        </mxCell>
        <mxCell id="SGy9ina3q4Tt7oIruu-C-29" value="e(25)" style="ellipse;whiteSpace=wrap;html=1;aspect=fixed;fillColor=#dae8fc;strokeColor=#6c8ebf;" vertex="1" parent="1">
          <mxGeometry x="527.5" y="592.5" width="36" height="36" as="geometry" />
        </mxCell>
        <mxCell id="SGy9ina3q4Tt7oIruu-C-30" value="f(13)" style="ellipse;whiteSpace=wrap;html=1;aspect=fixed;" vertex="1" parent="1">
          <mxGeometry x="280" y="680" width="36" height="36" as="geometry" />
        </mxCell>
        <mxCell id="SGy9ina3q4Tt7oIruu-C-31" value="&lt;font face=&quot;Comic Sans MS&quot;&gt;T&lt;/font&gt;" style="text;html=1;strokeColor=none;fillColor=none;align=center;verticalAlign=middle;whiteSpace=wrap;rounded=0;dashed=1;" vertex="1" parent="1">
          <mxGeometry x="38" y="590" width="40" height="20" as="geometry" />
        </mxCell>
        <mxCell id="SGy9ina3q4Tt7oIruu-C-32" style="rounded=0;orthogonalLoop=1;jettySize=auto;html=1;exitX=0;exitY=1;exitDx=0;exitDy=0;entryX=1;entryY=0;entryDx=0;entryDy=0;startArrow=none;startFill=0;endArrow=none;endFill=0;" edge="1" parent="1" source="SGy9ina3q4Tt7oIruu-C-34" target="SGy9ina3q4Tt7oIruu-C-25">
          <mxGeometry relative="1" as="geometry" />
        </mxCell>
        <mxCell id="SGy9ina3q4Tt7oIruu-C-33" style="edgeStyle=none;rounded=0;orthogonalLoop=1;jettySize=auto;html=1;exitX=1;exitY=1;exitDx=0;exitDy=0;startArrow=none;startFill=0;endArrow=none;endFill=0;" edge="1" parent="1" source="SGy9ina3q4Tt7oIruu-C-34" target="SGy9ina3q4Tt7oIruu-C-28">
          <mxGeometry relative="1" as="geometry" />
        </mxCell>
        <mxCell id="SGy9ina3q4Tt7oIruu-C-34" value="t1(12)" style="ellipse;whiteSpace=wrap;html=1;aspect=fixed;" vertex="1" parent="1">
          <mxGeometry x="164" y="680" width="36" height="36" as="geometry" />
        </mxCell>
        <mxCell id="SGy9ina3q4Tt7oIruu-C-47" style="edgeStyle=none;rounded=0;orthogonalLoop=1;jettySize=auto;html=1;exitX=0;exitY=1;exitDx=0;exitDy=0;entryX=1;entryY=0;entryDx=0;entryDy=0;startArrow=none;startFill=0;endArrow=none;endFill=0;" edge="1" parent="1" source="SGy9ina3q4Tt7oIruu-C-46" target="SGy9ina3q4Tt7oIruu-C-34">
          <mxGeometry relative="1" as="geometry" />
        </mxCell>
        <mxCell id="SGy9ina3q4Tt7oIruu-C-48" style="edgeStyle=none;rounded=0;orthogonalLoop=1;jettySize=auto;html=1;exitX=1;exitY=1;exitDx=0;exitDy=0;startArrow=none;startFill=0;endArrow=none;endFill=0;" edge="1" parent="1" source="SGy9ina3q4Tt7oIruu-C-46" target="SGy9ina3q4Tt7oIruu-C-30">
          <mxGeometry relative="1" as="geometry" />
        </mxCell>
        <mxCell id="SGy9ina3q4Tt7oIruu-C-46" value="t2(25)" style="ellipse;whiteSpace=wrap;html=1;aspect=fixed;" vertex="1" parent="1">
          <mxGeometry x="228" y="592.5" width="36" height="36" as="geometry" />
        </mxCell>
        <mxCell id="SGy9ina3q4Tt7oIruu-C-49" value="重复相同的操作，最后变成了：" style="text;html=1;strokeColor=none;fillColor=none;align=center;verticalAlign=middle;whiteSpace=wrap;rounded=0;dashed=1;" vertex="1" parent="1">
          <mxGeometry x="304" y="828" width="184" height="20" as="geometry" />
        </mxCell>
        <mxCell id="SGy9ina3q4Tt7oIruu-C-50" value="a(5)&lt;br&gt;" style="ellipse;whiteSpace=wrap;html=1;aspect=fixed;fillColor=#d5e8d4;strokeColor=#82b366;" vertex="1" parent="1">
          <mxGeometry x="331" y="1181.5" width="36" height="36" as="geometry" />
        </mxCell>
        <mxCell id="SGy9ina3q4Tt7oIruu-C-51" value="b(32)" style="ellipse;whiteSpace=wrap;html=1;aspect=fixed;fillColor=#d5e8d4;strokeColor=#82b366;" vertex="1" parent="1">
          <mxGeometry x="498" y="1032" width="36" height="36" as="geometry" />
        </mxCell>
        <mxCell id="SGy9ina3q4Tt7oIruu-C-52" value="c(18)" style="ellipse;whiteSpace=wrap;html=1;aspect=fixed;fillColor=#d5e8d4;strokeColor=#82b366;" vertex="1" parent="1">
          <mxGeometry x="266" y="1032" width="36" height="36" as="geometry" />
        </mxCell>
        <mxCell id="SGy9ina3q4Tt7oIruu-C-53" value="d(7)" style="ellipse;whiteSpace=wrap;html=1;aspect=fixed;fillColor=#d5e8d4;strokeColor=#82b366;" vertex="1" parent="1">
          <mxGeometry x="416" y="1181.5" width="36" height="36" as="geometry" />
        </mxCell>
        <mxCell id="SGy9ina3q4Tt7oIruu-C-54" value="e(25)" style="ellipse;whiteSpace=wrap;html=1;aspect=fixed;fillColor=#d5e8d4;strokeColor=#82b366;" vertex="1" parent="1">
          <mxGeometry x="350.5" y="1032" width="36" height="36" as="geometry" />
        </mxCell>
        <mxCell id="SGy9ina3q4Tt7oIruu-C-55" value="f(13)" style="ellipse;whiteSpace=wrap;html=1;aspect=fixed;fillColor=#d5e8d4;strokeColor=#82b366;" vertex="1" parent="1">
          <mxGeometry x="456" y="1109.5" width="36" height="36" as="geometry" />
        </mxCell>
        <mxCell id="SGy9ina3q4Tt7oIruu-C-61" style="edgeStyle=none;rounded=0;orthogonalLoop=1;jettySize=auto;html=1;exitX=0;exitY=1;exitDx=0;exitDy=0;entryX=1;entryY=0;entryDx=0;entryDy=0;startArrow=none;startFill=0;endArrow=none;endFill=0;" edge="1" parent="1" source="SGy9ina3q4Tt7oIruu-C-56" target="SGy9ina3q4Tt7oIruu-C-50">
          <mxGeometry relative="1" as="geometry" />
        </mxCell>
        <mxCell id="SGy9ina3q4Tt7oIruu-C-78" value="0" style="edgeLabel;html=1;align=center;verticalAlign=middle;resizable=0;points=[];" vertex="1" connectable="0" parent="SGy9ina3q4Tt7oIruu-C-61">
          <mxGeometry x="0.0209" y="-3" relative="1" as="geometry">
            <mxPoint as="offset" />
          </mxGeometry>
        </mxCell>
        <mxCell id="SGy9ina3q4Tt7oIruu-C-62" style="edgeStyle=none;rounded=0;orthogonalLoop=1;jettySize=auto;html=1;exitX=1;exitY=1;exitDx=0;exitDy=0;startArrow=none;startFill=0;endArrow=none;endFill=0;" edge="1" parent="1" source="SGy9ina3q4Tt7oIruu-C-56" target="SGy9ina3q4Tt7oIruu-C-53">
          <mxGeometry relative="1" as="geometry" />
        </mxCell>
        <mxCell id="SGy9ina3q4Tt7oIruu-C-77" value="1" style="edgeLabel;html=1;align=center;verticalAlign=middle;resizable=0;points=[];" vertex="1" connectable="0" parent="SGy9ina3q4Tt7oIruu-C-62">
          <mxGeometry x="0.0539" relative="1" as="geometry">
            <mxPoint as="offset" />
          </mxGeometry>
        </mxCell>
        <mxCell id="SGy9ina3q4Tt7oIruu-C-56" value="t1(12)" style="ellipse;whiteSpace=wrap;html=1;aspect=fixed;" vertex="1" parent="1">
          <mxGeometry x="375" y="1109.5" width="36" height="36" as="geometry" />
        </mxCell>
        <mxCell id="SGy9ina3q4Tt7oIruu-C-59" style="edgeStyle=none;rounded=0;orthogonalLoop=1;jettySize=auto;html=1;exitX=0;exitY=1;exitDx=0;exitDy=0;entryX=1;entryY=0;entryDx=0;entryDy=0;startArrow=none;startFill=0;endArrow=none;endFill=0;" edge="1" parent="1" source="SGy9ina3q4Tt7oIruu-C-57" target="SGy9ina3q4Tt7oIruu-C-56">
          <mxGeometry relative="1" as="geometry" />
        </mxCell>
        <mxCell id="SGy9ina3q4Tt7oIruu-C-79" value="0" style="edgeLabel;html=1;align=center;verticalAlign=middle;resizable=0;points=[];" vertex="1" connectable="0" parent="SGy9ina3q4Tt7oIruu-C-59">
          <mxGeometry x="-0.0314" y="-1" relative="1" as="geometry">
            <mxPoint as="offset" />
          </mxGeometry>
        </mxCell>
        <mxCell id="SGy9ina3q4Tt7oIruu-C-60" style="edgeStyle=none;rounded=0;orthogonalLoop=1;jettySize=auto;html=1;exitX=1;exitY=1;exitDx=0;exitDy=0;startArrow=none;startFill=0;endArrow=none;endFill=0;" edge="1" parent="1" source="SGy9ina3q4Tt7oIruu-C-57" target="SGy9ina3q4Tt7oIruu-C-55">
          <mxGeometry relative="1" as="geometry" />
        </mxCell>
        <mxCell id="SGy9ina3q4Tt7oIruu-C-76" value="1" style="edgeLabel;html=1;align=center;verticalAlign=middle;resizable=0;points=[];" vertex="1" connectable="0" parent="SGy9ina3q4Tt7oIruu-C-60">
          <mxGeometry x="-0.2693" y="-1" relative="1" as="geometry">
            <mxPoint as="offset" />
          </mxGeometry>
        </mxCell>
        <mxCell id="SGy9ina3q4Tt7oIruu-C-57" value="t2(25)" style="ellipse;whiteSpace=wrap;html=1;aspect=fixed;" vertex="1" parent="1">
          <mxGeometry x="420" y="1036" width="36" height="36" as="geometry" />
        </mxCell>
        <mxCell id="SGy9ina3q4Tt7oIruu-C-63" style="edgeStyle=none;rounded=0;orthogonalLoop=1;jettySize=auto;html=1;exitX=0;exitY=1;exitDx=0;exitDy=0;startArrow=none;startFill=0;endArrow=none;endFill=0;" edge="1" parent="1" source="SGy9ina3q4Tt7oIruu-C-58" target="SGy9ina3q4Tt7oIruu-C-52">
          <mxGeometry relative="1" as="geometry" />
        </mxCell>
        <mxCell id="SGy9ina3q4Tt7oIruu-C-73" value="0" style="edgeLabel;html=1;align=center;verticalAlign=middle;resizable=0;points=[];" vertex="1" connectable="0" parent="SGy9ina3q4Tt7oIruu-C-63">
          <mxGeometry x="0.1167" y="1" relative="1" as="geometry">
            <mxPoint as="offset" />
          </mxGeometry>
        </mxCell>
        <mxCell id="SGy9ina3q4Tt7oIruu-C-64" style="edgeStyle=none;rounded=0;orthogonalLoop=1;jettySize=auto;html=1;exitX=1;exitY=1;exitDx=0;exitDy=0;startArrow=none;startFill=0;endArrow=none;endFill=0;" edge="1" parent="1" source="SGy9ina3q4Tt7oIruu-C-58" target="SGy9ina3q4Tt7oIruu-C-54">
          <mxGeometry relative="1" as="geometry" />
        </mxCell>
        <mxCell id="SGy9ina3q4Tt7oIruu-C-74" value="1" style="edgeLabel;html=1;align=center;verticalAlign=middle;resizable=0;points=[];" vertex="1" connectable="0" parent="SGy9ina3q4Tt7oIruu-C-64">
          <mxGeometry x="-0.0607" y="1" relative="1" as="geometry">
            <mxPoint as="offset" />
          </mxGeometry>
        </mxCell>
        <mxCell id="SGy9ina3q4Tt7oIruu-C-58" value="t3(43)" style="ellipse;whiteSpace=wrap;html=1;aspect=fixed;" vertex="1" parent="1">
          <mxGeometry x="312" y="956" width="36" height="36" as="geometry" />
        </mxCell>
        <mxCell id="SGy9ina3q4Tt7oIruu-C-66" style="edgeStyle=none;rounded=0;orthogonalLoop=1;jettySize=auto;html=1;exitX=0;exitY=1;exitDx=0;exitDy=0;startArrow=none;startFill=0;endArrow=none;endFill=0;" edge="1" parent="1" source="SGy9ina3q4Tt7oIruu-C-65" target="SGy9ina3q4Tt7oIruu-C-57">
          <mxGeometry relative="1" as="geometry" />
        </mxCell>
        <mxCell id="SGy9ina3q4Tt7oIruu-C-80" value="0" style="edgeLabel;html=1;align=center;verticalAlign=middle;resizable=0;points=[];" vertex="1" connectable="0" parent="SGy9ina3q4Tt7oIruu-C-66">
          <mxGeometry x="0.1339" y="-3" relative="1" as="geometry">
            <mxPoint as="offset" />
          </mxGeometry>
        </mxCell>
        <mxCell id="SGy9ina3q4Tt7oIruu-C-67" style="edgeStyle=none;rounded=0;orthogonalLoop=1;jettySize=auto;html=1;exitX=1;exitY=1;exitDx=0;exitDy=0;startArrow=none;startFill=0;endArrow=none;endFill=0;" edge="1" parent="1" source="SGy9ina3q4Tt7oIruu-C-65" target="SGy9ina3q4Tt7oIruu-C-51">
          <mxGeometry relative="1" as="geometry" />
        </mxCell>
        <mxCell id="SGy9ina3q4Tt7oIruu-C-75" value="1" style="edgeLabel;html=1;align=center;verticalAlign=middle;resizable=0;points=[];" vertex="1" connectable="0" parent="SGy9ina3q4Tt7oIruu-C-67">
          <mxGeometry x="0.0907" y="-1" relative="1" as="geometry">
            <mxPoint as="offset" />
          </mxGeometry>
        </mxCell>
        <mxCell id="SGy9ina3q4Tt7oIruu-C-65" value="t4(57)" style="ellipse;whiteSpace=wrap;html=1;aspect=fixed;" vertex="1" parent="1">
          <mxGeometry x="460" y="956" width="36" height="36" as="geometry" />
        </mxCell>
        <mxCell id="SGy9ina3q4Tt7oIruu-C-69" style="edgeStyle=none;rounded=0;orthogonalLoop=1;jettySize=auto;html=1;exitX=0;exitY=1;exitDx=0;exitDy=0;entryX=1;entryY=0;entryDx=0;entryDy=0;startArrow=none;startFill=0;endArrow=none;endFill=0;" edge="1" parent="1" source="SGy9ina3q4Tt7oIruu-C-68" target="SGy9ina3q4Tt7oIruu-C-58">
          <mxGeometry relative="1" as="geometry" />
        </mxCell>
        <mxCell id="SGy9ina3q4Tt7oIruu-C-71" value="0" style="edgeLabel;html=1;align=center;verticalAlign=middle;resizable=0;points=[];" vertex="1" connectable="0" parent="SGy9ina3q4Tt7oIruu-C-69">
          <mxGeometry x="-0.0919" relative="1" as="geometry">
            <mxPoint as="offset" />
          </mxGeometry>
        </mxCell>
        <mxCell id="SGy9ina3q4Tt7oIruu-C-70" style="edgeStyle=none;rounded=0;orthogonalLoop=1;jettySize=auto;html=1;exitX=1;exitY=1;exitDx=0;exitDy=0;startArrow=none;startFill=0;endArrow=none;endFill=0;" edge="1" parent="1" source="SGy9ina3q4Tt7oIruu-C-68" target="SGy9ina3q4Tt7oIruu-C-65">
          <mxGeometry relative="1" as="geometry" />
        </mxCell>
        <mxCell id="SGy9ina3q4Tt7oIruu-C-72" value="1" style="edgeLabel;html=1;align=center;verticalAlign=middle;resizable=0;points=[];" vertex="1" connectable="0" parent="SGy9ina3q4Tt7oIruu-C-70">
          <mxGeometry x="0.1101" relative="1" as="geometry">
            <mxPoint as="offset" />
          </mxGeometry>
        </mxCell>
        <mxCell id="SGy9ina3q4Tt7oIruu-C-68" value="t5(100)" style="ellipse;whiteSpace=wrap;html=1;aspect=fixed;" vertex="1" parent="1">
          <mxGeometry x="391.5" y="877" width="40" height="40" as="geometry" />
        </mxCell>
        <mxCell id="SGy9ina3q4Tt7oIruu-C-81" value="a:1000&amp;nbsp; &amp;nbsp; b:11&amp;nbsp; &amp;nbsp; c:00&amp;nbsp; &amp;nbsp; d:1001&amp;nbsp; &amp;nbsp; e:01&amp;nbsp; &amp;nbsp; f:101&amp;nbsp;" style="text;html=1;strokeColor=none;fillColor=none;align=center;verticalAlign=middle;whiteSpace=wrap;rounded=0;dashed=1;" vertex="1" parent="1">
          <mxGeometry x="256" y="1239" width="278" height="20" as="geometry" />
        </mxCell>
      </root>
    </mxGraphModel>
  </diagram>
</mxfile>
